<svg xmlns="http://www.w3.org/2000/svg" viewBox="0 0 400 100"><defs><path id="a" d="M804 358H1546V682H804z"/></defs><g stroke="none" aria-label="Subo" style="font-size:144.458px;font-family:Elephant;-inkscape-font-specification:Elephant;text-align:center;letter-spacing:5.00877px;white-space:pre;shape-inside:url(#a);display:inline;fill:#fff;stroke:#e1287e;stroke-width:0;paint-order:markers fill stroke" transform="translate(-509.905 -240.089)scale(.67228)"><path d="m 1035.8855,491.69032 q -12.7123,0 -22.1021,-4.18929 -9.3897,-4.18928 -15.16806,-11.41218 l 12.56786,-13.86796 q 5.4894,6.06723 11.99,8.95639 6.6451,2.88916 13.4346,2.88916 7.8007,0 11.8455,-3.46699 4.0449,-3.46699 4.0449,-9.9676 0,-5.34495 -3.1781,-8.08965 -3.0336,-2.7447 -10.401,-3.90037 l -10.5454,-1.73349 q -13.5791,-2.31133 -19.6463,-9.9676 -6.0672,-7.80073 -6.0672,-18.924 0,-14.59026 9.5342,-22.53545 9.5342,-8.08964 26.7247,-8.08964 11.7011,0 20.3686,3.61145 8.6675,3.61145 14.0124,9.82314 l -12.2789,13.72351 q -4.0448,-4.4782 -9.5342,-6.93399 -5.4894,-2.60024 -12.4234,-2.60024 -14.5903,0 -14.5903,11.99001 0,5.20049 3.1781,7.80074 3.3225,2.60024 10.6899,3.90036 l 10.5454,1.87796 q 12.279,2.16687 18.924,9.24531 6.6451,7.07844 6.6451,19.06845 0,7.07844 -2.4558,13.14568 -2.4558,5.92278 -7.3674,10.40097 -4.9115,4.33374 -12.1344,6.78953 -7.0785,2.45579 -16.6127,2.45579 z" style="font-weight:700;font-family:&quot;IBM Plex Mono&quot;;-inkscape-font-specification:&quot;IBM Plex Mono, Bold&quot;"/><path d="m 1141.726,476.37777 h -0.8667 q -2.4558,6.35615 -7.8008,10.83435 -5.2005,4.4782 -14.1569,4.4782 -5.3449,0 -9.8231,-1.7335 -4.4782,-1.87795 -7.6563,-5.4894 -3.178,-3.61145 -5.056,-8.81194 -1.7335,-5.20049 -1.7335,-11.99001 V 415.4165 h 21.3798 v 45.35981 q 0,14.44579 12.5678,14.44579 2.4558,0 4.7671,-0.57783 2.4558,-0.72229 4.1893,-2.02241 1.878,-1.44458 3.0336,-3.46699 1.1557,-2.02241 1.1557,-4.76711 V 415.4165 h 21.3798 v 74.54032 h -21.3798 z" style="font-weight:700;font-family:&quot;IBM Plex Mono&quot;;-inkscape-font-specification:&quot;IBM Plex Mono, Bold&quot;"/><path d="m 1186.0274,383.05791 h 21.3798 v 45.93764 h 1.0112 q 2.7447,-6.64507 7.9452,-10.97881 5.2005,-4.33374 14.1569,-4.33374 6.2117,0 11.2677,2.31133 5.2005,2.31133 8.8119,7.07844 3.7559,4.76711 5.7784,12.13447 2.1668,7.36736 2.1668,17.47942 0,10.11206 -2.1668,17.47942 -2.0225,7.36735 -5.7784,12.13447 -3.6114,4.76711 -8.8119,7.07844 -5.056,2.31133 -11.2677,2.31133 -8.9564,0 -14.1569,-4.18929 -5.2005,-4.33374 -7.9452,-11.12326 h -1.0112 v 13.57905 h -21.3798 z m 35.2478,92.01974 q 7.2229,0 11.1232,-4.33374 3.9004,-4.4782 3.9004,-12.27893 v -11.55664 q 0,-7.80073 -3.9004,-12.13447 -3.9003,-4.4782 -11.1232,-4.4782 -5.6339,0 -9.8232,2.7447 -4.0448,2.7447 -4.0448,8.66748 v 21.95762 q 0,5.92277 4.0448,8.66748 4.1893,2.7447 9.8232,2.7447 z" style="font-weight:700;font-family:&quot;IBM Plex Mono&quot;;-inkscape-font-specification:&quot;IBM Plex Mono, Bold&quot;"/><path d="m 1312.5254,491.69032 q -8.6675,0 -15.6014,-2.60025 -6.934,-2.7447 -11.8456,-7.80073 -4.7671,-5.05603 -7.3674,-12.27893 -2.6002,-7.2229 -2.6002,-16.32375 0,-9.10086 2.6002,-16.32376 2.6003,-7.22289 7.3674,-12.27892 4.9116,-5.05603 11.8456,-7.65628 6.9339,-2.7447 15.6014,-2.7447 8.6675,0 15.6015,2.7447 6.934,2.60025 11.7011,7.65628 4.9115,5.05603 7.5118,12.27892 2.6002,7.2229 2.6002,16.32376 0,9.10085 -2.6002,16.32375 -2.6003,7.2229 -7.5118,12.27893 -4.7671,5.05603 -11.7011,7.80073 -6.934,2.60025 -15.6015,2.60025 z m 0,-15.89038 q 7.2229,0 11.2677,-4.4782 4.0449,-4.4782 4.0449,-12.7123 v -11.84556 q 0,-8.23411 -4.0449,-12.7123 -4.0448,-4.4782 -11.2677,-4.4782 -7.2229,0 -11.2677,4.4782 -4.0448,4.47819 -4.0448,12.7123 v 11.84556 q 0,8.2341 4.0448,12.7123 4.0448,4.4782 11.2677,4.4782 z" style="font-weight:700;font-family:&quot;IBM Plex Mono&quot;;-inkscape-font-specification:&quot;IBM Plex Mono, Bold&quot;"/></g><g transform="translate(-75.16 -887.798)scale(.85057)"><path d="M120.94 1112.457H139.477V1133.33H120.94z" style="fill:#ffa;fill-opacity:1;stroke:#e1287e;stroke-width:0;paint-order:markers fill stroke"/><path d="M157.624 1112.507H176.161V1133.38H157.624z" style="fill:#fea;fill-opacity:1;stroke:#e1287e;stroke-width:0;paint-order:markers fill stroke"/><rect width="14.458" height="45.476" x="119.317" y="1058.384" ry="3.004" style="fill:#745399;fill-opacity:1;stroke:#e1287e;stroke-width:3.5;stroke-dasharray:none;paint-order:markers fill stroke"/><rect width="14.055" height="58.643" x="141.328" y="1045.448" ry="3.805" style="fill:#848ca4;fill-opacity:1;stroke:#e1287e;stroke-width:3.5;stroke-dasharray:none;paint-order:markers fill stroke"/><rect width="15.074" height="29.129" x="162.628" y="1074.095" ry="1.602" style="fill:#00f4ff;fill-opacity:1;stroke:#e1287e;stroke-width:3.5;stroke-dasharray:none;paint-order:markers fill stroke"/><path d="M126.558 1119.119H134.732V1127.293H126.558z" style="fill:#e1287e;fill-opacity:1;stroke:#e1287e;stroke-width:0;paint-order:markers fill stroke"/><path d="M121.131 1112.77H139.668V1133.643H121.131z" style="fill:#ffa;fill-opacity:.5;stroke:#e1287e;stroke-width:0;paint-order:markers fill stroke"/><path d="M157.654 1113.668H175.7V1133.068H157.654z" style="fill:#ffa;fill-opacity:1;stroke:#e1287e;stroke-width:0;paint-order:markers fill stroke"/><path d="m 108.12863,1103.5542 c -2.47464,0 -4.46684,2.3073 -4.46684,5.1734 v 44.1012 c 0,2.866 1.9922,5.1733 4.46684,5.1733 h 85.14624 c 2.47464,0 4.46683,-2.3073 4.46683,-5.1733 v -44.1012 c 0,-2.8661 -1.99219,-5.1734 -4.46683,-5.1734 z m 11.47492,7.712 h 21.85303 v 23.4002 h -21.85303 z m 36.0849,0.3289 h 21.85305 v 23.4003 h -21.85305 z" style="fill:#9eff00;fill-opacity:1;stroke:#e1287e;stroke-width:3.5;stroke-dasharray:none;paint-order:markers fill stroke"/><path d="M197.812 1116.369H205.33V1139.537H197.812z" style="fill:#9eff00;fill-opacity:1;stroke:#e1287e;stroke-width:3.5;stroke-dasharray:none;paint-order:markers fill stroke"/><path d="M95.301 1115.783H103.491V1138.821H95.301z" style="fill:#9eff00;fill-opacity:1;stroke:#e1287e;stroke-width:3.5;stroke-dasharray:none;paint-order:markers fill stroke"/><path fill="none" d="m 159.56887,1120.4725 5.80962,5.6092 9.95931,-9.2843" style="fill:teal;fill-opacity:0;stroke:#e1287e;stroke-width:5.3542;stroke-dasharray:none;stroke-opacity:1;paint-order:markers fill stroke"/><path d="m 140.15751,1146.7937 16.31069,-4.0175" style="fill:#000005;fill-opacity:1;stroke:#e1287e;stroke-width:3.5;stroke-dasharray:none;stroke-opacity:1;paint-order:markers fill stroke"/><path d="M157.625 1113.387H175.728V1133.155H157.625z" style="fill:#ffa;fill-opacity:.501961;stroke:#e1287e;stroke-width:0;paint-order:markers fill stroke"/></g></svg>