<svg xmlns="http://www.w3.org/2000/svg" width="400" height="100" viewBox="0 0 400 100"><defs><path id="a" d="M804 358h742v324H804z"/></defs><text xml:space="preserve" style="font-style:normal;font-variant:normal;font-weight:400;font-stretch:normal;font-size:144.458px;font-family:Elephant;-inkscape-font-specification:Elephant;font-variant-ligatures:normal;font-variant-caps:normal;font-variant-numeric:normal;font-variant-east-asian:normal;text-align:center;letter-spacing:5.00877px;white-space:pre;shape-inside:url(#a);display:inline;fill:#fff;fill-opacity:1;stroke:#e1287e;stroke-width:0;stroke-dasharray:none;stroke-opacity:1;paint-order:markers fill stroke" transform="translate(-509.905 -240.089)scale(.67227)"><tspan x="994.137" y="489.957"><tspan style="font-weight:700;font-family:&quot;IBM Plex Mono&quot;;-inkscape-font-specification:&quot;IBM Plex Mono, Bold&quot;">Subo</tspan></tspan></text><g transform="translate(-75.16 -887.798)scale(.85057)"><path d="M120.94 1112.457h18.537v20.873H120.94z" style="fill:#ffa;fill-opacity:1;stroke:#e1287e;stroke-width:0;paint-order:markers fill stroke"/><path d="M157.624 1112.507h18.537v20.873h-18.537z" style="fill:#fea;fill-opacity:1;stroke:#e1287e;stroke-width:0;paint-order:markers fill stroke"/><rect width="14.458" height="45.476" x="119.317" y="1058.384" ry="3.004" style="fill:#745399;fill-opacity:1;stroke:#e1287e;stroke-width:3.5;stroke-dasharray:none;paint-order:markers fill stroke"/><rect width="14.055" height="58.643" x="141.328" y="1045.448" ry="3.805" style="fill:#848ca4;fill-opacity:1;stroke:#e1287e;stroke-width:3.5;stroke-dasharray:none;paint-order:markers fill stroke"/><rect width="15.074" height="29.129" x="162.628" y="1074.095" ry="1.602" style="fill:#00f4ff;fill-opacity:1;stroke:#e1287e;stroke-width:3.5;stroke-dasharray:none;paint-order:markers fill stroke"/><path d="M126.558 1119.119h8.174v8.174h-8.174z" style="fill:#e1287e;fill-opacity:1;stroke:#e1287e;stroke-width:0;paint-order:markers fill stroke"/><path d="M121.131 1112.77h18.537v20.873h-18.537z" style="fill:#ffa;fill-opacity:.5;stroke:#e1287e;stroke-width:0;paint-order:markers fill stroke"/><path d="M157.654 1113.668H175.7v19.4h-18.046z" style="fill:#ffa;fill-opacity:1;stroke:#e1287e;stroke-width:0;paint-order:markers fill stroke"/><path d="M108.129 1103.554c-2.475 0-4.467 2.307-4.467 5.174v44.1c0 2.867 1.992 5.174 4.467 5.174h85.146c2.475 0 4.467-2.307 4.467-5.173v-44.101c0-2.867-1.992-5.174-4.467-5.174zm11.475 7.712h21.853v23.4h-21.853zm36.084.33h21.854v23.4h-21.854zM197.812 1116.369h7.518v23.168h-7.518zM95.301 1115.783h8.19v23.038h-8.19z" style="fill:#9eff00;fill-opacity:1;stroke:#e1287e;stroke-width:3.5;stroke-dasharray:none;paint-order:markers fill stroke"/><path fill="none" d="m159.569 1120.473 5.81 5.609 9.959-9.285" style="fill:teal;fill-opacity:0;stroke:#e1287e;stroke-width:5.3542;stroke-dasharray:none;stroke-opacity:1;paint-order:markers fill stroke"/><path d="m140.158 1146.794 16.31-4.018" style="fill:#000005;fill-opacity:1;stroke:#e1287e;stroke-width:3.5;stroke-dasharray:none;stroke-opacity:1;paint-order:markers fill stroke"/><path d="M157.625 1113.387h18.103v19.768h-18.103z" style="fill:#ffa;fill-opacity:.501961;stroke:#e1287e;stroke-width:0;paint-order:markers fill stroke"/></g></svg>